<svg viewBox="0 0 7 7">
            <rect x ="0" y="0"
          width="1" height="1"
          fill="#AEF28C"></rect>
        <rect x ="6" y="0"
          width="1" height="1"
          fill="#AEF28C"></rect>
        <rect x ="1" y="0"
          width="1" height="1"
          fill="#538EAB"></rect>
        <rect x ="5" y="0"
          width="1" height="1"
          fill="#538EAB"></rect>
        <rect x ="2" y="0"
          width="1" height="1"
          fill="#AEF28C"></rect>
        <rect x ="4" y="0"
          width="1" height="1"
          fill="#AEF28C"></rect>
        <rect x ="3" y="0"
          width="1" height="1"
          fill="#538EAB"></rect>
                <rect x ="0" y="1"
          width="1" height="1"
          fill="#538EAB"></rect>
        <rect x ="6" y="1"
          width="1" height="1"
          fill="#538EAB"></rect>
        <rect x ="1" y="1"
          width="1" height="1"
          fill="#538EAB"></rect>
        <rect x ="5" y="1"
          width="1" height="1"
          fill="#538EAB"></rect>
        <rect x ="2" y="1"
          width="1" height="1"
          fill="#4F98DE"></rect>
        <rect x ="4" y="1"
          width="1" height="1"
          fill="#4F98DE"></rect>
        <rect x ="3" y="1"
          width="1" height="1"
          fill="#4F98DE"></rect>
                <rect x ="0" y="2"
          width="1" height="1"
          fill="#AEF28C"></rect>
        <rect x ="6" y="2"
          width="1" height="1"
          fill="#AEF28C"></rect>
        <rect x ="1" y="2"
          width="1" height="1"
          fill="#AEF28C"></rect>
        <rect x ="5" y="2"
          width="1" height="1"
          fill="#AEF28C"></rect>
        <rect x ="2" y="2"
          width="1" height="1"
          fill="#AEF28C"></rect>
        <rect x ="4" y="2"
          width="1" height="1"
          fill="#AEF28C"></rect>
        <rect x ="3" y="2"
          width="1" height="1"
          fill="#538EAB"></rect>
                <rect x ="0" y="3"
          width="1" height="1"
          fill="#D73B95"></rect>
        <rect x ="6" y="3"
          width="1" height="1"
          fill="#D73B95"></rect>
        <rect x ="1" y="3"
          width="1" height="1"
          fill="#4F98DE"></rect>
        <rect x ="5" y="3"
          width="1" height="1"
          fill="#4F98DE"></rect>
        <rect x ="2" y="3"
          width="1" height="1"
          fill="#D73B95"></rect>
        <rect x ="4" y="3"
          width="1" height="1"
          fill="#D73B95"></rect>
        <rect x ="3" y="3"
          width="1" height="1"
          fill="#AEF28C"></rect>
                <rect x ="0" y="4"
          width="1" height="1"
          fill="#AEF28C"></rect>
        <rect x ="6" y="4"
          width="1" height="1"
          fill="#AEF28C"></rect>
        <rect x ="1" y="4"
          width="1" height="1"
          fill="#4F98DE"></rect>
        <rect x ="5" y="4"
          width="1" height="1"
          fill="#4F98DE"></rect>
        <rect x ="2" y="4"
          width="1" height="1"
          fill="#538EAB"></rect>
        <rect x ="4" y="4"
          width="1" height="1"
          fill="#538EAB"></rect>
        <rect x ="3" y="4"
          width="1" height="1"
          fill="#D73B95"></rect>
                <rect x ="0" y="5"
          width="1" height="1"
          fill="#D73B95"></rect>
        <rect x ="6" y="5"
          width="1" height="1"
          fill="#D73B95"></rect>
        <rect x ="1" y="5"
          width="1" height="1"
          fill="#4F98DE"></rect>
        <rect x ="5" y="5"
          width="1" height="1"
          fill="#4F98DE"></rect>
        <rect x ="2" y="5"
          width="1" height="1"
          fill="#4F98DE"></rect>
        <rect x ="4" y="5"
          width="1" height="1"
          fill="#4F98DE"></rect>
        <rect x ="3" y="5"
          width="1" height="1"
          fill="#538EAB"></rect>
                <rect x ="0" y="6"
          width="1" height="1"
          fill="#D73B95"></rect>
        <rect x ="6" y="6"
          width="1" height="1"
          fill="#D73B95"></rect>
        <rect x ="1" y="6"
          width="1" height="1"
          fill="#AEF28C"></rect>
        <rect x ="5" y="6"
          width="1" height="1"
          fill="#AEF28C"></rect>
        <rect x ="2" y="6"
          width="1" height="1"
          fill="#538EAB"></rect>
        <rect x ="4" y="6"
          width="1" height="1"
          fill="#538EAB"></rect>
        <rect x ="3" y="6"
          width="1" height="1"
          fill="#538EAB"></rect>
        </svg>